<svg data-v-423bf9ae="" xmlns="http://www.w3.org/2000/svg" viewBox="0 0 1593.0177047655782 193" class="fontAboveSlogan"><!----><!----><!----><g data-v-423bf9ae="" id="70fa2ba0-caf6-4914-a8be-fd9fb5bea12d" fill="#D3316B" transform="matrix(11.226494390862285,0,0,11.226494390862285,407.9031940203221,-8.59025706018187)"><path d="M6.94 9.07L6.92 9.13L6.92 9.13Q7.20 9.07 7.49 9.04L7.49 9.04L7.49 9.04Q7.78 9.00 7.95 9.04L7.95 9.04L7.95 9.04Q8.12 9.09 8.10 9.25L8.10 9.25L8.10 9.25Q8.08 9.41 7.74 9.74L7.74 9.74L7.60 9.62L7.60 9.62Q7.49 9.77 7.33 9.90L7.33 9.90L7.33 9.90Q7.17 10.04 7.06 10.11L7.06 10.11L7.06 10.11Q6.58 10.39 5.87 10.42L5.87 10.42L5.87 10.42Q5.17 10.44 4.42 10.43L4.42 10.43L4.42 10.43Q4.27 10.47 4.12 10.51L4.12 10.51L4.12 10.51Q3.96 10.54 3.81 10.60L3.81 10.60L3.81 10.60Q3.54 10.67 3.25 10.78L3.25 10.78L3.25 10.78Q2.95 10.89 2.65 10.99L2.65 10.99L2.65 10.99Q2.35 11.09 2.04 11.16L2.04 11.16L2.04 11.16Q1.74 11.23 1.46 11.20L1.46 11.20L1.41 11.16L1.41 11.16Q1.32 11.19 1.23 11.20L1.23 11.20L1.23 11.20Q1.13 11.21 1.08 11.20L1.08 11.20L1.08 11.20Q0.97 11.19 0.98 11.08L0.98 11.08L0.98 11.08Q0.99 10.98 1.06 10.86L1.06 10.86L1.06 10.86Q1.12 10.74 1.20 10.64L1.20 10.64L1.20 10.64Q1.27 10.54 1.29 10.53L1.29 10.53L1.29 10.53Q1.15 10.65 1.01 10.72L1.01 10.72L1.01 10.72Q0.87 10.79 0.80 10.72L0.80 10.72L0.80 10.72Q0.71 10.58 0.70 10.44L0.70 10.44L0.70 10.44Q0.69 10.29 0.70 10.14L0.70 10.14L0.70 9.76L0.70 9.76Q0.67 9.79 0.59 9.84L0.59 9.84L0.59 9.84Q0.52 9.90 0.39 9.97L0.39 9.97L0.39 9.97Q0.27 10.05 0.18 9.97L0.18 9.97L0.18 9.97Q0.17 9.31 0.40 8.70L0.40 8.70L0.40 8.70Q0.63 8.09 0.85 7.49L0.85 7.49L0.85 7.49Q0.97 6.85 1.15 6.40L1.15 6.40L1.15 6.38L1.15 6.38Q1.16 6.36 1.18 6.33L1.18 6.33L1.18 6.33Q1.19 6.30 1.20 6.27L1.20 6.27L1.20 6.27Q1.22 6.24 1.27 6.18L1.27 6.18L1.27 6.18Q1.33 6.12 1.40 6.03L1.40 6.03L1.40 6.03Q1.43 5.88 1.45 5.74L1.45 5.74L1.45 5.74Q1.47 5.60 1.50 5.46L1.50 5.46L1.50 5.11L1.50 5.11Q1.40 5.18 1.32 5.21L1.32 5.21L1.32 5.21Q1.23 5.24 1.16 5.17L1.16 5.17L1.16 5.17Q1.15 5.12 1.16 5.00L1.16 5.00L1.16 5.00Q1.16 4.89 1.19 4.76L1.19 4.76L1.19 4.76Q1.22 4.63 1.25 4.51L1.25 4.51L1.25 4.51Q1.29 4.38 1.30 4.31L1.30 4.31L1.30 4.31Q1.33 3.96 1.32 3.67L1.32 3.67L1.32 3.67Q1.32 3.37 1.33 3.09L1.33 3.09L1.33 3.09Q1.30 2.90 1.28 2.72L1.28 2.72L1.28 2.72Q1.26 2.53 1.29 2.35L1.29 2.35L1.29 2.35Q1.26 2.24 1.22 2.18L1.22 2.18L1.22 2.18Q1.25 2.16 1.27 2.14L1.27 2.14L1.27 2.14Q1.30 2.13 1.33 2.10L1.33 2.10L1.37 1.97L1.26 2.03L1.26 2.03Q1.26 2.03 1.29 1.97L1.29 1.97L1.29 1.97Q1.36 1.86 1.50 1.69L1.50 1.69L1.50 1.69Q1.58 1.51 1.75 1.34L1.75 1.34L1.75 1.34Q1.88 1.22 2.02 1.11L2.02 1.11L2.02 1.11Q2.16 0.99 2.35 0.97L2.35 0.97L2.35 0.97Q2.37 0.98 2.42 0.98L2.42 0.98L2.42 0.98Q2.48 1.13 2.42 1.29L2.42 1.29L2.42 1.29Q2.35 1.44 2.30 1.60L2.30 1.60L2.30 1.60Q2.45 1.47 2.60 1.40L2.60 1.40L2.60 1.40Q2.65 1.39 2.69 1.38L2.69 1.38L2.69 1.38Q2.74 1.37 2.79 1.39L2.79 1.39L2.79 1.39Q2.90 1.48 3.00 1.65L3.00 1.65L2.81 1.82L2.83 1.82L2.83 1.82Q2.94 2.25 2.87 2.71L2.87 2.71L2.87 2.71Q2.80 3.16 2.69 3.61L2.69 3.61L2.69 3.61Q2.80 3.58 2.81 3.71L2.81 3.71L2.81 3.71Q2.70 4.66 2.68 5.60L2.68 5.60L2.68 5.60Q2.66 6.54 2.69 7.50L2.69 7.50L2.69 7.50Q2.70 7.99 2.73 8.51L2.73 8.51L2.73 8.51Q2.76 9.03 2.70 9.53L2.70 9.53L2.70 9.53Q2.73 9.52 2.75 9.51L2.75 9.51L2.75 9.51Q2.77 9.51 2.80 9.49L2.80 9.49L2.80 9.49Q3.18 9.35 3.56 9.32L3.56 9.32L3.56 9.32Q3.93 9.28 4.30 9.30L4.30 9.30L4.30 9.30Q4.66 9.31 5.03 9.34L5.03 9.34L5.03 9.34Q5.39 9.37 5.74 9.35L5.74 9.35L5.77 9.35L5.77 9.35Q5.96 9.31 6.15 9.27L6.15 9.27L6.15 9.27Q6.33 9.23 6.52 9.20L6.52 9.20L6.52 9.20Q6.58 9.18 6.63 9.18L6.63 9.18L6.63 9.18Q6.68 9.17 6.75 9.16L6.75 9.16L6.75 9.16Q6.79 9.13 6.84 9.11L6.84 9.11L6.84 9.11Q6.89 9.10 6.94 9.07L6.94 9.07ZM9.18 6.82L9.18 6.82L9.18 6.82Q9.38 6.48 9.64 6.17L9.64 6.17L9.64 6.17Q9.90 5.87 10.20 5.62L10.20 5.62L10.20 5.62Q10.50 5.38 10.84 5.21L10.84 5.21L10.84 5.21Q11.17 5.05 11.51 5.00L11.51 5.00L11.51 5.00Q11.90 4.73 12.34 4.55L12.34 4.55L12.34 4.55Q12.78 4.37 13.09 4.52L13.09 4.52L13.09 4.52Q13.48 4.75 13.71 5.05L13.71 5.05L13.71 5.05Q13.86 5.10 13.99 5.18L13.99 5.18L13.99 5.18Q14.03 5.22 14.07 5.26L14.07 5.26L14.07 5.26Q14.11 5.31 14.15 5.36L14.15 5.36L14.15 5.36Q14.31 5.22 14.43 5.17L14.43 5.17L14.43 5.17Q14.56 5.11 14.59 5.25L14.59 5.25L14.59 5.25Q14.64 5.66 14.66 6.05L14.66 6.05L14.66 6.05Q14.67 6.45 14.66 6.86L14.66 6.86L14.66 6.86Q14.67 6.92 14.68 6.96L14.68 6.96L14.68 6.96Q14.69 7 14.69 7.04L14.69 7.04L14.69 7.04Q14.69 7.31 14.72 7.60L14.72 7.60L14.72 7.60Q14.76 7.90 14.63 8.12L14.63 8.12L14.63 8.12Q14.63 8.19 14.62 8.27L14.62 8.27L14.62 8.27Q14.62 8.34 14.62 8.41L14.62 8.41L14.62 8.41Q14.69 8.95 14.70 9.39L14.70 9.39L14.70 9.39Q14.73 9.53 14.75 9.67L14.75 9.67L14.75 9.67Q14.77 9.80 14.78 9.93L14.78 9.93L14.78 9.93Q14.80 10.01 14.85 10.08L14.85 10.08L14.80 10.14L14.80 10.14Q14.80 10.39 14.74 10.62L14.74 10.62L14.74 10.62Q14.69 10.85 14.52 11.06L14.52 11.06L14.52 11.06Q14.48 11.10 14.39 11.19L14.39 11.19L14.39 11.19Q14.29 11.28 14.19 11.37L14.19 11.37L14.19 11.37Q14.08 11.45 13.99 11.49L13.99 11.49L13.99 11.49Q13.89 11.52 13.82 11.45L13.82 11.45L13.82 11.45Q13.80 11.44 13.80 11.42L13.80 11.42L13.80 11.42Q13.80 11.42 13.79 11.41L13.79 11.41L13.79 11.41Q13.78 11.41 13.76 11.42L13.76 11.42L13.72 11.42L13.72 11.42Q13.62 11.42 13.59 11.40L13.59 11.40L13.59 11.40Q13.52 11.19 13.52 10.91L13.52 10.91L13.52 10.91Q13.52 10.64 13.50 10.44L13.50 10.44L13.50 10.44Q13.47 10.23 13.45 10.02L13.45 10.02L13.45 10.02Q13.43 9.81 13.40 9.59L13.40 9.59L13.40 9.59Q13.03 9.83 12.60 10.00L12.60 10.00L12.60 10.00Q12.17 10.16 11.68 10.30L11.68 10.30L11.68 10.30Q11.59 10.33 11.52 10.35L11.52 10.35L11.52 10.35Q11.44 10.37 11.35 10.40L11.35 10.40L11.35 10.40Q11.14 10.51 10.93 10.61L10.93 10.61L10.93 10.61Q10.71 10.70 10.49 10.74L10.49 10.74L10.49 10.74Q10.28 10.78 10.07 10.75L10.07 10.75L10.07 10.75Q9.86 10.72 9.65 10.57L9.65 10.57L9.65 10.57Q9.27 10.30 8.96 9.93L8.96 9.93L8.96 9.93Q8.65 9.56 8.50 9.13L8.50 9.13L8.50 9.13Q8.44 8.99 8.46 8.82L8.46 8.82L8.46 8.82Q8.47 8.65 8.53 8.47L8.53 8.47L8.53 8.47Q8.44 8.13 8.50 7.92L8.50 7.92L8.50 7.92Q8.58 7.62 8.76 7.34L8.76 7.34L8.76 7.34Q8.95 7.07 9.18 6.82ZM10.71 9.21L10.71 9.21L10.71 9.21Q10.88 9.24 11.20 9.21L11.20 9.21L11.20 9.21Q11.52 9.17 11.90 9.07L11.90 9.07L11.90 9.07Q12.28 8.97 12.66 8.82L12.66 8.82L12.66 8.82Q13.03 8.67 13.30 8.47L13.30 8.47L13.30 8.47Q13.27 8.15 13.25 7.81L13.25 7.81L13.25 7.81Q13.23 7.48 13.20 7.14L13.20 7.14L13.20 7.14Q13.19 7.03 13.19 6.92L13.19 6.92L13.19 6.92Q13.19 6.79 13.17 6.68L13.17 6.68L13.12 6.72L13.12 6.72Q13.10 6.65 13.10 6.57L13.10 6.57L13.10 6.57Q13.10 6.48 13.10 6.41L13.10 6.41L13.10 6.41Q13.08 6.34 13.04 6.28L13.04 6.28L13.04 6.28Q13.01 6.22 12.98 6.15L12.98 6.15L12.85 6.26L12.85 6.26Q12.81 6.19 12.81 6.10L12.81 6.10L12.81 6.10Q12.81 6.01 12.78 5.94L12.78 5.94L12.78 5.94Q12.53 5.85 12.31 5.80L12.31 5.80L12.31 5.80Q12.08 5.75 11.87 5.74L11.87 5.74L11.87 5.74Q11.68 5.74 11.49 5.77L11.49 5.77L11.49 5.77Q11.30 5.80 11.10 5.84L11.10 5.84L11.10 5.84Q10.54 6.06 10.00 6.82L10.00 6.82L10.00 6.82Q9.80 7.06 9.62 7.39L9.62 7.39L9.62 7.39Q9.59 7.81 9.70 8.22L9.70 8.22L9.70 8.22Q9.79 8.34 9.89 8.51L9.89 8.51L9.89 8.51Q10.00 8.68 10.12 8.83L10.12 8.83L10.12 8.83Q10.25 8.97 10.39 9.09L10.39 9.09L10.39 9.09Q10.54 9.20 10.71 9.21ZM15.19 5.94L15.50 5.64L15.50 5.64Q15.48 5.57 15.48 5.50L15.48 5.50L15.48 5.50Q15.48 5.43 15.48 5.36L15.48 5.36L15.48 5.29L15.50 5.28L15.50 5.28Q15.53 5.15 15.62 5.00L15.62 5.00L15.62 5.00Q15.72 4.86 15.85 4.74L15.85 4.74L15.85 4.74Q15.97 4.62 16.12 4.54L16.12 4.54L16.12 4.54Q16.27 4.47 16.39 4.49L16.39 4.49L16.39 4.51L16.41 4.49L16.41 4.61L16.41 4.61Q16.44 4.76 16.46 4.90L16.46 4.90L16.46 4.90Q16.49 5.04 16.52 5.19L16.52 5.19L16.52 5.19Q16.60 5.10 16.71 5.00L16.71 5.00L16.71 5.00Q16.81 4.90 16.91 4.83L16.91 4.83L16.91 4.83Q17.00 4.76 17.07 4.74L17.07 4.74L17.07 4.74Q17.14 4.72 17.18 4.77L17.18 4.77L17.18 4.77Q17.19 4.77 17.22 4.75L17.22 4.75L17.22 4.75Q17.21 4.79 17.21 4.86L17.21 4.86L17.21 4.86Q17.25 5.22 17.28 5.59L17.28 5.59L17.28 5.59Q17.32 5.96 17.36 6.33L17.36 6.33L17.36 6.33Q17.39 6.47 17.41 6.61L17.41 6.61L17.41 6.61Q17.43 6.75 17.46 6.90L17.46 6.90L17.46 6.90Q17.57 7.34 17.70 7.76L17.70 7.76L17.70 7.76Q17.82 8.18 17.89 8.60L17.89 8.60L17.89 8.60Q18.05 8.26 18.20 7.93L18.20 7.93L18.20 7.93Q18.35 7.60 18.54 7.28L18.54 7.28L18.54 7.28Q18.72 6.90 18.94 6.55L18.94 6.55L18.94 6.55Q19.17 6.20 19.49 5.91L19.49 5.91L19.49 5.91Q19.49 5.89 19.52 5.87L19.52 5.87L19.52 5.87Q19.54 5.84 19.66 5.75L19.66 5.75L19.66 5.75Q19.77 5.66 19.88 5.59L19.88 5.59L19.88 5.59Q19.99 5.52 20.08 5.52L20.08 5.52L20.08 5.52Q20.16 5.52 20.13 5.66L20.13 5.66L20.41 5.43L20.41 5.43Q20.38 5.70 20.38 5.96L20.38 5.96L20.38 5.96Q20.38 6.22 20.40 6.50L20.40 6.50L20.47 6.50L20.47 6.52L20.48 6.51L20.48 6.54L20.48 6.54Q20.64 6.86 20.73 7.22L20.73 7.22L20.73 7.22Q20.82 7.59 20.90 7.91L20.90 7.91L20.90 7.91Q20.96 8.13 21.01 8.35L21.01 8.35L21.01 8.35Q21.06 8.57 21.13 8.79L21.13 8.79L21.13 8.79Q21.20 8.40 21.29 8.02L21.29 8.02L21.29 8.02Q21.39 7.63 21.52 7.25L21.52 7.25L21.52 7.25Q21.60 6.89 21.73 6.54L21.73 6.54L21.73 6.54Q21.87 6.20 22.08 5.87L22.08 5.87L22.08 5.87Q22.23 5.46 22.44 5.14L22.44 5.14L22.44 5.14Q22.65 4.82 22.92 4.66L22.92 4.66L22.92 4.66Q23.00 4.62 23.07 4.58L23.07 4.58L23.07 4.58Q23.13 4.55 23.24 4.58L23.24 4.58L23.24 4.58Q23.28 4.62 23.31 4.63L23.31 4.63L23.31 4.63Q23.31 4.66 23.32 4.67L23.32 4.67L23.32 4.67Q23.32 4.68 23.32 4.70L23.32 4.70L23.32 4.70Q23.28 5.15 23.13 5.59L23.13 5.59L23.13 5.59Q22.97 6.02 22.83 6.44L22.83 6.44L22.83 6.44Q22.72 6.72 22.64 7.01L22.64 7.01L22.64 7.01Q22.55 7.31 22.46 7.59L22.46 7.59L22.46 7.59Q22.40 7.91 22.33 8.26L22.33 8.26L22.33 8.26Q22.26 8.61 22.15 8.93L22.15 8.93L22.15 8.93Q22.11 9.30 22.02 9.64L22.02 9.64L22.02 9.64Q21.92 9.98 21.76 10.30L21.76 10.30L21.76 10.30Q21.73 10.33 21.66 10.42L21.66 10.42L21.66 10.42Q21.60 10.51 21.49 10.63L21.49 10.63L21.49 10.63Q21.45 10.72 21.34 10.87L21.34 10.87L21.34 10.87Q21.24 11.02 21.11 11.14L21.11 11.14L21.11 11.14Q20.97 11.27 20.84 11.35L20.84 11.35L20.84 11.35Q20.71 11.42 20.62 11.38L20.62 11.38L20.62 11.38Q20.62 11.40 20.61 11.40L20.61 11.40L20.61 11.40Q20.61 11.40 20.61 11.41L20.61 11.41L20.61 11.41Q20.61 11.40 20.60 11.39L20.60 11.39L20.60 11.39Q20.59 11.38 20.59 11.37L20.59 11.37L20.59 11.37Q20.09 10.49 19.81 9.40L19.81 9.40L19.81 9.40Q19.53 8.32 19.47 7.24L19.47 7.24L19.47 7.24Q19.39 7.50 19.31 7.76L19.31 7.76L19.31 7.76Q19.22 8.02 19.14 8.27L19.14 8.27L19.22 8.22L19.22 8.22Q19.14 8.57 19.05 8.96L19.05 8.96L19.05 8.96Q18.97 9.35 18.84 9.72L18.84 9.72L18.84 9.72Q18.70 10.08 18.49 10.39L18.49 10.39L18.49 10.39Q18.28 10.71 17.93 10.91L17.93 10.91L17.93 10.91Q17.82 10.95 17.74 10.97L17.74 10.97L17.74 10.97Q17.65 10.99 17.68 10.84L17.68 10.84L17.68 10.84Q17.68 10.75 17.70 10.71L17.70 10.71L17.70 10.71Q17.54 10.88 17.37 11.00L17.37 11.00L17.37 11.00Q17.19 11.13 17.08 11.02L17.08 11.02L17.08 11.02Q17.05 10.86 17.09 10.71L17.09 10.71L17.09 10.71Q17.12 10.56 17.18 10.40L17.18 10.40L17.18 10.40Q17.11 10.40 17.08 10.39L17.08 10.39L17.04 10.43L17.04 10.36L17.04 10.36Q17.02 10.33 17.02 10.28L17.02 10.28L17.02 10.28Q17.01 10.28 17.01 10.26L17.01 10.26L17.01 10.26Q16.81 10.44 16.56 10.56L16.56 10.56L16.56 10.56Q16.53 10.56 16.52 10.57L16.52 10.57L16.52 10.57Q16.42 10.57 16.38 10.53L16.38 10.53L16.38 10.53Q16.23 10.22 16.11 9.81L16.11 9.81L16.11 9.81Q15.99 9.41 15.90 8.96L15.90 8.96L15.90 8.96Q15.81 8.51 15.74 8.03L15.74 8.03L15.74 8.03Q15.67 7.55 15.61 7.08L15.61 7.08L15.61 7.08Q15.53 6.76 15.43 6.47L15.43 6.47L15.43 6.47Q15.33 6.17 15.19 5.94L15.19 5.94ZM29.51 4.83L29.51 4.83L29.51 4.83Q29.44 4.28 29.32 3.72L29.32 3.72L29.32 3.72Q29.19 3.15 29.19 2.58L29.19 2.58L29.19 2.58Q29.11 2.60 29.02 2.62L29.02 2.62L29.02 2.62Q28.94 2.63 28.83 2.66L28.83 2.66L28.83 2.66Q28.67 2.86 28.48 3.02L28.48 3.02L28.48 3.02Q28.28 3.19 28.06 3.16L28.06 3.16L28 3.12L28 3.12Q27.92 2.88 28.08 2.65L28.08 2.65L28.08 2.65Q28.24 2.42 28.50 2.23L28.50 2.23L28.50 2.23Q28.77 2.03 29.08 1.88L29.08 1.88L29.08 1.88Q29.39 1.74 29.58 1.67L29.58 1.67L30.49 0.84L30.49 0.84Q30.51 0.99 30.53 1.13L30.53 1.13L30.53 1.13Q30.55 1.27 30.59 1.41L30.59 1.41L30.59 1.41Q31.14 1.32 31.80 1.27L31.80 1.27L31.80 1.27Q32.47 1.22 33.10 1.25L33.10 1.25L33.10 1.25Q33.74 1.29 34.30 1.42L34.30 1.42L34.30 1.42Q34.86 1.55 35.21 1.82L35.21 1.82L35.21 1.82Q35.21 1.85 35.22 1.86L35.22 1.86L35.22 1.86Q35.22 1.86 35.22 1.89L35.22 1.89L35.22 1.89Q35.17 2.31 34.92 2.67L34.92 2.67L34.92 2.67Q34.66 3.02 34.31 3.34L34.31 3.34L34.31 3.34Q33.96 3.65 33.56 3.91L33.56 3.91L33.56 3.91Q33.15 4.17 32.76 4.40L32.76 4.40L32.76 4.40Q33.47 4.33 34.13 4.41L34.13 4.41L34.13 4.41Q34.79 4.49 35.13 4.80L35.13 4.80L35.13 4.80Q35.28 4.94 35.32 5.13L35.32 5.13L35.32 5.13Q35.36 5.32 35.34 5.52L35.34 5.52L35.34 5.52Q35.32 5.71 35.26 5.91L35.26 5.91L35.26 5.91Q35.20 6.10 35.13 6.26L35.13 6.26L35.13 6.26Q34.89 6.85 34.41 7.36L34.41 7.36L34.41 7.36Q33.92 7.88 33.32 8.31L33.32 8.31L33.32 8.31Q32.72 8.74 32.07 9.08L32.07 9.08L32.07 9.08Q31.42 9.42 30.84 9.67L30.84 9.67L30.84 9.67Q30.76 9.79 30.65 9.92L30.65 9.92L30.65 9.92Q30.53 10.05 30.41 10.15L30.41 10.15L30.41 10.15Q30.30 10.25 30.19 10.28L30.19 10.28L30.19 10.28Q30.09 10.32 30.02 10.25L30.02 10.25L30.02 10.25Q30.00 10.23 30.00 10.21L30.00 10.21L30.37 9.88L30.02 10.16L30.02 10.16Q30.04 10.05 30.04 10.00L30.04 10.00L30.04 10.00Q29.55 10.18 29.02 10.32L29.02 10.32L29.02 10.32Q28.48 10.46 27.97 10.32L27.97 10.32L27.97 10.32Q27.86 10.28 27.85 10.17L27.85 10.17L27.85 10.17Q27.85 10.07 27.88 9.94L27.88 9.94L27.88 9.94Q27.92 9.81 27.98 9.70L27.98 9.70L27.98 9.70Q28.04 9.58 28.07 9.53L28.07 9.53L28.07 9.53Q28.31 9.24 28.64 9.02L28.64 9.02L28.64 9.02Q28.97 8.79 29.36 8.90L29.36 8.90L29.36 8.90Q29.26 9.02 29.16 9.11L29.16 9.11L29.16 9.11Q29.06 9.21 28.98 9.32L28.98 9.32L28.98 9.32Q29.39 9.38 30.03 9.23L30.03 9.23L30.03 9.23Q29.97 8.78 29.87 8.34L29.87 8.34L29.87 8.34Q29.76 7.91 29.74 7.63L29.74 7.63L29.74 7.63Q29.62 6.93 29.60 6.24L29.60 6.24L29.60 6.24Q29.58 5.54 29.51 4.83ZM31.42 8.61L31.42 8.61L31.42 8.61Q31.40 8.64 31.39 8.69L31.39 8.69L31.39 8.69Q31.37 8.74 31.35 8.78L31.35 8.78L31.35 8.78Q31.72 8.61 32.10 8.42L32.10 8.42L32.10 8.42Q32.48 8.23 32.81 8.03L32.81 8.03L32.81 8.03Q33.14 7.83 33.41 7.62L33.41 7.62L33.41 7.62Q33.68 7.42 33.87 7.24L33.87 7.24L33.87 7.24Q34.12 6.99 34.23 6.73L34.23 6.73L34.23 6.73Q34.34 6.47 34.33 6.09L34.33 6.09L34.33 6.09Q34.33 5.81 34.02 5.67L34.02 5.67L34.02 5.67Q33.71 5.53 33.31 5.47L33.31 5.47L33.31 5.47Q32.91 5.40 32.54 5.40L32.54 5.40L32.54 5.40Q32.16 5.40 31.99 5.42L31.99 5.42L31.99 5.42Q31.75 5.45 31.54 5.47L31.54 5.47L31.54 5.47Q31.33 5.50 31.12 5.53L31.12 5.53L31.12 5.53Q31.19 6.30 31.30 7.05L31.30 7.05L31.30 7.05Q31.40 7.80 31.42 8.55L31.42 8.55L31.42 8.61ZM30.86 2.56L30.86 2.56L30.86 2.56Q30.93 3.07 30.96 3.58L30.96 3.58L30.96 3.58Q31.00 4.09 31.05 4.61L31.05 4.61L31.05 4.61Q31.54 4.31 32.08 4.07L32.08 4.07L32.08 4.07Q32.62 3.84 33.11 3.56L33.11 3.56L33.11 3.56Q33.39 3.39 33.66 3.18L33.66 3.18L33.66 3.18Q33.92 2.97 34.20 2.77L34.20 2.77L34.20 2.77Q33.91 2.56 33.51 2.45L33.51 2.45L33.51 2.45Q33.11 2.34 32.66 2.30L32.66 2.30L32.66 2.30Q32.20 2.25 31.73 2.27L31.73 2.27L31.73 2.27Q31.26 2.28 30.81 2.32L30.81 2.32L30.86 2.56ZM35.98 9.52L35.98 9.52L35.98 9.52Q35.77 9.10 35.75 8.63L35.75 8.63L35.75 8.63Q35.73 8.16 35.86 7.69L35.86 7.69L35.86 7.69Q35.99 7.22 36.26 6.78L36.26 6.78L36.26 6.78Q36.53 6.33 36.88 5.96L36.88 5.96L36.88 5.96Q36.90 5.94 36.93 5.90L36.93 5.90L36.93 5.90Q36.96 5.87 36.99 5.84L36.99 5.84L36.99 5.84Q37.16 5.66 37.38 5.45L37.38 5.45L37.38 5.45Q37.60 5.25 37.86 5.08L37.86 5.08L37.86 5.08Q38.11 4.91 38.38 4.81L38.38 4.81L38.38 4.81Q38.65 4.70 38.92 4.73L38.92 4.73L38.92 4.73Q39.09 4.76 39.23 4.79L39.23 4.79L39.23 4.79Q39.38 4.82 39.54 4.84L39.54 4.84L39.54 4.84Q40.07 4.77 40.52 5.04L40.52 5.04L40.52 5.04Q40.71 5.17 40.92 5.29L40.92 5.29L40.92 5.29Q41.12 5.40 41.29 5.56L41.29 5.56L41.29 5.56Q41.58 5.87 41.79 6.22L41.79 6.22L41.79 6.22Q42 6.57 42.10 6.94L42.10 6.94L42.10 6.94Q42.13 7 42.15 7.04L42.15 7.04L42.15 7.04Q42.18 7.08 42.21 7.14L42.21 7.14L42.21 7.14Q42.34 7.39 42.39 7.72L42.39 7.72L42.39 7.72Q42.45 8.05 42.35 8.33L42.35 8.33L42.35 8.33Q42.18 8.83 42.08 9.10L42.08 9.10L42.08 9.10Q41.99 9.37 41.84 9.55L41.84 9.55L41.84 9.55Q41.69 9.74 41.47 9.94L41.47 9.94L41.47 9.94Q41.24 10.14 40.82 10.51L40.82 10.51L40.82 10.51Q40.67 10.67 40.47 10.77L40.47 10.77L40.47 10.77Q40.28 10.88 40.07 10.92L40.07 10.92L40.07 10.92Q39.80 10.98 39.52 10.96L39.52 10.96L39.52 10.96Q39.24 10.95 38.98 10.93L38.98 10.93L38.98 10.93Q38.65 10.92 38.40 10.91L38.40 10.91L38.40 10.91Q38.15 10.91 37.93 10.88L37.93 10.88L37.93 10.88Q37.70 10.85 37.47 10.77L37.47 10.77L37.47 10.77Q37.24 10.68 36.96 10.51L36.96 10.51L36.96 10.51Q36.95 10.51 36.93 10.50L36.93 10.50L36.93 10.50Q36.25 10.15 35.98 9.52ZM40.94 7.67L40.94 7.67L40.94 7.67Q40.68 7.34 40.31 7.01L40.31 7.01L40.31 7.01Q39.93 6.69 39.49 6.47L39.49 6.47L39.49 6.47Q39.05 6.26 38.58 6.18L38.58 6.18L38.58 6.18Q38.12 6.10 37.70 6.26L37.70 6.26L37.70 6.26Q37.46 6.45 37.30 6.75L37.30 6.75L37.30 6.75Q36.90 7.39 36.92 7.95L36.92 7.95L36.92 7.95Q36.93 8.51 37.26 8.90L37.26 8.90L37.26 8.90Q37.59 9.30 38.19 9.46L38.19 9.46L38.19 9.46Q38.78 9.63 39.55 9.51L39.55 9.51L39.55 9.51Q39.69 9.48 39.89 9.44L39.89 9.44L39.89 9.44Q40.08 9.39 40.29 9.32L40.29 9.32L40.29 9.32Q40.50 9.24 40.69 9.13L40.69 9.13L40.69 9.13Q40.88 9.03 41.01 8.90L41.01 8.90L41.01 8.90Q41.24 8.64 41.20 8.29L41.20 8.29L41.20 8.29Q41.15 7.95 40.94 7.67ZM41.27 9.55L41.27 9.55L41.27 9.55Q41.12 9.70 40.94 9.83L40.94 9.83L40.94 9.83Q40.77 9.95 40.61 10.07L40.61 10.07L40.61 10.07Q40.77 10.04 40.85 9.98L40.85 9.98L40.85 9.98Q40.95 9.90 41.06 9.81L41.06 9.81L41.06 9.81Q41.17 9.73 41.24 9.62L41.24 9.62L41.24 9.62Q41.26 9.60 41.26 9.59L41.26 9.59L41.26 9.59Q41.26 9.58 41.27 9.55ZM46.84 4.14L46.84 4.14L46.84 4.14Q46.84 4.23 46.85 4.30L46.85 4.30L46.85 4.30Q46.86 4.38 46.86 4.47L46.86 4.47L46.86 4.47Q46.89 4.63 46.90 4.81L46.90 4.81L46.90 4.81Q46.91 4.98 46.94 5.15L46.94 5.15L46.94 5.15Q47.18 5.12 47.41 5.11L47.41 5.11L47.41 5.11Q47.64 5.10 47.88 5.11L47.88 5.11L47.88 5.11Q47.99 5.10 48.08 5.10L48.08 5.10L48.08 5.10Q48.17 5.10 48.29 5.08L48.29 5.08L48.24 5.12L48.24 5.12Q48.37 5.14 48.50 5.14L48.50 5.14L48.50 5.14Q48.62 5.15 48.75 5.18L48.75 5.18L48.83 5.18L48.80 5.21L48.82 5.21L48.83 5.21L48.83 5.21Q48.97 5.25 48.90 5.38L48.90 5.38L48.90 5.38Q48.83 5.52 48.68 5.67L48.68 5.67L48.68 5.67Q48.52 5.82 48.36 5.96L48.36 5.96L48.36 5.96Q48.19 6.09 48.12 6.12L48.12 6.12L48.12 6.12Q48.10 6.12 48.09 6.13L48.09 6.13L48.09 6.13Q48.08 6.13 48.06 6.13L48.06 6.13L47.99 6.13L47.99 6.13Q47.85 6.15 47.73 6.15L47.73 6.15L47.73 6.15Q47.60 6.16 47.47 6.16L47.47 6.16L47.47 6.16Q47.36 6.17 47.26 6.18L47.26 6.18L47.26 6.18Q47.17 6.19 47.07 6.20L47.07 6.20L47.07 6.20Q47.11 6.64 47.14 7.06L47.14 7.06L47.14 7.06Q47.17 7.49 47.15 7.91L47.15 7.91L47.15 7.91Q47.14 8.25 47.13 8.68L47.13 8.68L47.13 8.68Q47.12 9.11 47.12 9.52L47.12 9.52L47.12 9.52Q47.15 9.74 47.17 9.96L47.17 9.96L47.17 9.96Q47.18 10.18 47.18 10.39L47.18 10.39L47.18 10.39Q47.17 10.47 47.05 10.63L47.05 10.63L47.05 10.63Q46.94 10.79 46.80 10.94L46.80 10.94L46.80 10.94Q46.66 11.09 46.52 11.18L46.52 11.18L46.52 11.18Q46.37 11.27 46.27 11.20L46.27 11.20L46.27 11.20Q46.27 11.20 46.26 11.21L46.26 11.21L46.26 11.19L46.26 11.19Q46.24 11.12 46.23 11.07L46.23 11.07L46.23 11.07Q46.23 11.02 46.21 10.96L46.21 10.96L46.21 10.96Q46.13 11.06 46.04 11.15L46.04 11.15L46.04 11.15Q45.95 11.24 45.86 11.30L45.86 11.30L45.86 11.30Q45.77 11.35 45.69 11.38L45.69 11.38L45.69 11.38Q45.61 11.40 45.56 11.34L45.56 11.34L45.56 11.34Q45.39 10.89 45.38 10.41L45.38 10.41L45.38 10.41Q45.37 9.93 45.36 9.45L45.36 9.45L45.36 9.45Q45.32 8.69 45.30 7.96L45.30 7.96L45.30 7.96Q45.28 7.22 45.29 6.47L45.29 6.47L45.29 6.47Q45.18 6.50 45.09 6.51L45.09 6.51L45.09 6.51Q45.00 6.52 44.88 6.54L44.88 6.54L44.87 6.54L44.62 6.83L44.62 6.83Q44.34 6.83 44.04 6.86L44.04 6.86L44.04 6.86Q43.75 6.89 43.48 6.82L43.48 6.82L43.48 6.82Q43.41 6.76 43.46 6.62L43.46 6.62L43.46 6.62Q43.44 6.62 43.44 6.62L43.44 6.62L43.44 6.62Q43.44 6.61 43.46 6.61L43.46 6.61L43.46 6.61Q43.41 6.58 43.41 6.55L43.41 6.55L43.41 6.55Q43.39 6.55 43.37 6.57L43.37 6.57L43.37 6.57Q43.36 6.58 43.33 6.58L43.33 6.58L43.33 6.58Q43.23 6.59 43.21 6.57L43.21 6.57L43.21 6.57Q43.19 6.55 43.20 6.45L43.20 6.45L43.20 6.45Q43.32 6.01 43.61 5.83L43.61 5.83L43.61 5.83Q43.90 5.66 44.27 5.59L44.27 5.59L44.27 5.59Q44.52 5.50 44.78 5.43L44.78 5.43L44.78 5.43Q45.04 5.36 45.30 5.31L45.30 5.31L45.30 5.31Q45.30 5.12 45.30 4.96L45.30 4.96L45.30 4.96Q45.30 4.77 45.33 4.61L45.33 4.61L45.33 4.61Q45.35 4.49 45.47 4.30L45.47 4.30L45.47 4.30Q45.60 4.12 45.77 3.96L45.77 3.96L45.77 3.96Q45.84 3.70 46.09 3.48L46.09 3.48L46.09 3.48Q46.35 3.26 46.59 3.19L46.59 3.19L46.59 3.19Q46.69 3.21 46.74 3.30L46.74 3.30L46.74 3.30Q46.79 3.39 46.81 3.52L46.81 3.52L46.81 3.52Q46.83 3.65 46.83 3.79L46.83 3.79L46.83 3.79Q46.83 3.93 46.83 4.06L46.83 4.06L46.83 4.06Q46.84 4.09 46.84 4.14ZM56.31 2.10L56.31 2.10L56.31 2.10Q56.34 2.03 56.45 1.89L56.45 1.89L56.45 1.89Q56.56 1.75 56.70 1.61L56.70 1.61L56.70 1.61Q56.84 1.47 56.97 1.37L56.97 1.37L56.97 1.37Q57.11 1.26 57.18 1.29L57.18 1.29L57.18 1.29Q57.43 1.01 57.79 0.95L57.79 0.95L57.79 0.95Q57.86 0.97 57.88 1.04L57.88 1.04L57.88 1.04Q57.85 1.19 57.79 1.31L57.79 1.31L57.79 1.31Q57.72 1.43 57.64 1.54L57.64 1.54L57.64 1.58L57.64 1.58Q57.61 1.75 57.61 1.92L57.61 1.92L57.61 1.92Q57.61 2.09 57.58 2.24L57.58 2.24L57.58 2.24Q57.62 2.07 57.76 1.90L57.76 1.90L57.76 1.90Q57.89 1.74 58.05 1.60L58.05 1.60L58.05 1.60Q58.21 1.47 58.37 1.41L58.37 1.41L58.37 1.41Q58.53 1.34 58.65 1.39L58.65 1.39L58.65 1.39Q58.69 1.40 58.81 1.62L58.81 1.62L58.81 1.62Q58.93 1.83 59.07 2.13L59.07 2.13L59.07 2.13Q59.22 2.42 59.38 2.74L59.38 2.74L59.38 2.74Q59.54 3.05 59.65 3.29L59.65 3.29L59.65 3.29Q59.78 3.53 59.89 3.77L59.89 3.77L59.89 3.77Q60.37 4.65 60.83 5.51L60.83 5.51L60.83 5.51Q61.29 6.37 61.82 7.21L61.82 7.21L61.82 7.21Q61.98 7.46 62.20 7.79L62.20 7.79L62.20 7.79Q62.41 8.12 62.64 8.47L62.64 8.47L62.64 8.47Q62.87 8.82 63.08 9.17L63.08 9.17L63.08 9.17Q63.28 9.52 63.39 9.81L63.39 9.81L63.43 9.86L63.39 9.90L63.39 9.90Q63.36 10.02 63.25 10.19L63.25 10.19L63.25 10.19Q63.13 10.36 62.98 10.49L62.98 10.49L62.98 10.49Q62.83 10.63 62.69 10.69L62.69 10.69L62.69 10.69Q62.55 10.75 62.48 10.68L62.48 10.68L62.48 10.68Q62.34 10.54 62.22 10.41L62.22 10.41L62.22 10.41Q62.10 10.28 61.99 10.14L61.99 10.14L61.99 10.14Q61.87 10.22 61.71 10.26L61.71 10.26L61.64 10.33L61.64 10.33Q61.59 10.28 61.56 10.23L61.56 10.23L61.56 10.23Q61.43 10.19 61.31 10.07L61.31 10.07L61.31 10.07Q61.18 9.95 61.07 9.82L61.07 9.82L61.07 9.82Q60.96 9.69 60.86 9.55L60.86 9.55L60.86 9.55Q60.76 9.41 60.69 9.31L60.69 9.31L60.69 9.31Q60.26 8.76 59.84 8.20L59.84 8.20L59.84 8.20Q59.43 7.63 59.05 7.04L59.05 7.04L59.05 7.04Q58.80 7.20 58.53 7.34L58.53 7.34L58.53 7.34Q58.25 7.49 58.00 7.61L58.00 7.61L58.00 7.61Q57.75 7.73 57.55 7.81L57.55 7.81L57.55 7.81Q57.34 7.90 57.22 7.94L57.22 7.94L57.76 7.11L57.76 7.11Q57.33 7.31 56.91 7.55L56.91 7.55L56.91 7.55Q56.49 7.78 56.08 7.98L56.08 7.98L56.08 7.98Q56.00 8.36 55.92 8.73L55.92 8.73L55.92 8.73Q55.85 9.10 55.78 9.46L55.78 9.46L55.78 9.46Q55.71 9.83 55.66 10.14L55.66 10.14L55.66 10.14Q55.61 10.44 55.47 10.72L55.47 10.72L55.47 10.74L55.45 10.74L55.45 10.74Q55.41 10.82 55.36 10.91L55.36 10.91L55.36 10.91Q55.31 11.00 55.24 11.09L55.24 11.09L55.24 11.09Q55.20 11.13 55.11 11.22L55.11 11.22L55.11 11.22Q55.02 11.31 54.92 11.40L54.92 11.40L54.92 11.40Q54.81 11.48 54.71 11.52L54.71 11.52L54.71 11.52Q54.61 11.55 54.54 11.48L54.54 11.48L54.54 11.48Q54.52 11.16 54.54 10.84L54.54 10.84L54.54 10.84Q54.57 10.53 54.64 10.21L54.64 10.21L54.64 10.21Q54.46 10.50 54.11 10.67L54.11 10.67L54.11 10.67Q54.04 10.70 53.98 10.72L53.98 10.72L53.98 10.72Q53.91 10.75 53.84 10.68L53.84 10.68L53.84 10.68Q53.79 10.60 53.81 10.37L53.81 10.37L53.81 10.37Q53.83 10.15 53.89 9.87L53.89 9.87L53.89 9.87Q53.96 9.59 54.05 9.28L54.05 9.28L54.05 9.28Q54.15 8.97 54.25 8.70L54.25 8.70L54.25 8.70Q54.35 8.43 54.43 8.23L54.43 8.23L54.43 8.23Q54.50 8.04 54.52 7.99L54.52 7.99L54.52 7.99Q54.56 7.88 54.61 7.76L54.61 7.76L54.61 7.76Q54.66 7.64 54.70 7.53L54.70 7.53L54.70 7.53Q54.73 7.46 54.74 7.39L54.74 7.39L54.74 7.39Q54.75 7.32 54.78 7.25L54.78 7.25L54.78 7.25Q55.06 6.10 55.38 4.94L55.38 4.94L55.38 4.94Q55.69 3.78 56.10 2.65L56.10 2.65L56.07 2.66L56.07 2.66Q56.10 2.60 56.12 2.55L56.12 2.55L56.12 2.55Q56.14 2.51 56.17 2.45L56.17 2.45L56.17 2.45Q56.20 2.37 56.24 2.28L56.24 2.28L56.24 2.28Q56.28 2.18 56.31 2.10ZM57.95 2.60L57.95 2.60L57.95 2.60Q57.39 3.60 57.04 4.67L57.04 4.67L57.04 4.67Q56.70 5.74 56.39 6.83L56.39 6.83L56.39 6.83Q56.77 6.62 57.18 6.47L57.18 6.47L57.18 6.47Q57.60 6.31 58.04 6.16L58.04 6.16L58.04 6.16Q58.14 6.13 58.23 6.10L58.23 6.10L58.23 6.10Q58.32 6.06 58.44 6.03L58.44 6.03L58.44 6.03Q58.41 6.01 58.41 5.98L58.41 5.98L58.41 5.98Q58.30 5.80 58.16 5.56L58.16 5.56L58.16 5.56Q58.02 5.33 57.90 5.09L57.90 5.09L57.90 5.09Q57.79 4.84 57.72 4.59L57.72 4.59L57.72 4.59Q57.65 4.34 57.69 4.10L57.69 4.10L57.69 4.10Q57.74 4.00 57.83 3.86L57.83 3.86L57.83 3.86Q57.92 3.72 58.03 3.61L58.03 3.61L58.03 3.61Q57.99 3.49 57.95 3.37L57.95 3.37L57.95 3.37Q57.92 3.25 57.89 3.12L57.89 3.12L57.89 3.12Q57.89 2.98 58.03 2.77L58.03 2.77L57.95 2.60ZM64.62 1.27L64.62 1.27L64.62 1.27Q64.74 1.25 64.86 1.24L64.86 1.24L64.86 1.24Q64.97 1.23 65.09 1.22L65.09 1.22L65.09 1.22Q65.23 1.19 65.36 1.15L65.36 1.15L65.36 1.15Q65.49 1.12 65.62 1.09L65.62 1.09L65.62 1.09Q66.25 0.97 66.85 0.91L66.85 0.91L66.85 0.91Q67.45 0.85 68.08 0.98L68.08 0.98L67.97 1.11L67.97 1.11Q67.98 1.11 68.00 1.10L68.00 1.10L68.00 1.10Q68.01 1.09 68.03 1.09L68.03 1.09L68.03 1.09Q68.19 1.06 68.37 1.03L68.37 1.03L68.37 1.03Q68.54 0.99 68.74 0.95L68.74 0.95L68.71 0.98L68.71 0.98Q68.81 0.94 68.90 0.90L68.90 0.90L68.90 0.90Q68.99 0.85 69.10 0.85L69.10 0.85L69.10 0.85Q69.12 0.87 69.17 0.87L69.17 0.87L69.17 0.90L69.17 0.90Q68.94 1.12 68.72 1.33L68.72 1.33L68.72 1.33Q68.50 1.54 68.28 1.75L68.28 1.75L68.31 1.78L68.31 1.78Q68.24 1.78 68.17 1.82L68.17 1.82L68.17 1.82Q68.10 1.86 68.01 1.89L68.01 1.89L68.01 1.89Q67.93 1.92 67.84 1.93L67.84 1.93L67.84 1.93Q67.75 1.95 67.66 1.96L67.66 1.96L67.66 1.96Q67.65 2.39 67.56 2.82L67.56 2.82L67.56 2.82Q67.48 3.25 67.44 3.64L67.44 3.64L67.44 3.64Q67.41 3.92 67.38 4.14L67.38 4.14L67.38 4.14Q67.35 4.37 67.33 4.59L67.33 4.59L67.33 4.59Q67.33 4.93 67.32 5.27L67.32 5.27L67.32 5.27Q67.31 5.61 67.30 5.95L67.30 5.95L67.26 6.54L67.26 6.54Q67.27 6.64 67.27 6.73L67.27 6.73L67.27 6.73Q67.27 6.82 67.28 6.92L67.28 6.92L67.28 6.92Q67.31 7.49 67.31 8.06L67.31 8.06L67.31 8.06Q67.31 8.62 67.41 9.18L67.41 9.18L67.44 9.17L67.44 9.27L67.42 9.28L67.42 9.28Q67.40 9.34 67.36 9.41L67.36 9.41L67.36 9.41Q67.33 9.49 67.26 9.58L67.26 9.58L67.26 9.58Q67.33 9.55 67.40 9.54L67.40 9.54L67.40 9.54Q67.48 9.53 67.55 9.52L67.55 9.52L67.56 9.51L67.62 9.51L67.62 9.51Q67.62 9.51 67.63 9.52L67.63 9.52L67.63 9.52Q67.75 9.49 67.87 9.48L67.87 9.48L67.87 9.48Q67.98 9.48 68.10 9.46L68.10 9.46L68.10 9.46Q68.21 9.44 68.40 9.41L68.40 9.41L68.40 9.41Q68.43 9.41 68.52 9.41L68.52 9.41L68.52 9.41Q68.61 9.42 68.68 9.42L68.68 9.42L68.68 9.42Q68.70 9.42 68.71 9.41L68.71 9.41L68.71 9.41Q68.73 9.41 68.74 9.41L68.74 9.41L68.80 9.41L68.78 9.42L68.78 9.42Q68.88 9.46 68.80 9.61L68.80 9.61L68.80 9.61Q68.73 9.76 68.58 9.91L68.58 9.91L68.58 9.91Q68.43 10.07 68.25 10.19L68.25 10.19L68.25 10.19Q68.07 10.32 67.94 10.33L67.94 10.33L67.94 10.33Q67.76 10.35 67.58 10.36L67.58 10.36L67.58 10.36Q67.40 10.37 67.21 10.40L67.21 10.40L67.21 10.40Q67.10 10.43 67.02 10.43L67.02 10.43L67.02 10.43Q66.84 10.51 66.63 10.55L66.63 10.55L66.63 10.55Q66.43 10.58 66.21 10.64L66.21 10.64L66.21 10.64Q65.98 10.70 65.75 10.79L65.75 10.79L65.75 10.79Q65.52 10.88 65.27 11.09L65.27 11.09L65.27 11.09Q65.09 11.21 64.97 11.21L64.97 11.21L64.97 11.21Q64.85 11.33 64.71 11.39L64.71 11.39L64.71 11.39Q64.57 11.45 64.44 11.45L64.44 11.45L64.44 11.45Q64.37 11.38 64.40 11.33L64.40 11.33L64.40 11.33Q64.43 11.27 64.47 11.20L64.47 11.20L64.47 11.20Q64.65 10.84 64.93 10.58L64.93 10.58L64.93 10.58Q65.21 10.32 65.55 10.12L65.55 10.12L65.55 10.12Q65.44 8.11 65.48 6.10L65.48 6.10L65.48 6.10Q65.53 4.10 65.63 2.07L65.63 2.07L65.63 2.07Q65.63 2.02 65.70 1.88L65.70 1.88L65.70 1.88Q65.51 1.90 65.31 1.94L65.31 1.94L65.31 1.94Q65.11 1.97 64.92 2.00L64.92 2.00L64.92 2.00Q64.64 2.06 64.37 2.13L64.37 2.13L64.37 2.13Q64.11 2.20 63.83 2.20L63.83 2.20L63.83 2.20Q63.74 2.11 63.81 1.97L63.81 1.97L63.81 1.97Q63.88 1.83 64.03 1.69L64.03 1.69L64.03 1.69Q64.18 1.55 64.34 1.44L64.34 1.44L64.34 1.44Q64.50 1.32 64.60 1.29L64.60 1.29L64.61 1.27L64.62 1.27ZM64.97 10.71L64.97 10.71L64.97 10.71Q64.92 10.77 64.90 10.79L64.90 10.79L64.90 10.79Q64.88 10.81 64.86 10.83L64.86 10.83L64.86 10.83Q64.85 10.85 64.83 10.88L64.83 10.88L64.83 10.88Q64.81 10.91 64.76 10.98L64.76 10.98L64.95 10.89L64.95 10.89Q65.02 10.81 65.09 10.73L65.09 10.73L65.09 10.73Q65.17 10.65 65.24 10.58L65.24 10.58L65.24 10.54L65.24 10.54Q65.21 10.56 65.15 10.58L65.15 10.58L65.15 10.58Q65.09 10.60 65.06 10.63L65.06 10.63L64.97 10.71Z"></path></g><!----><!----><g data-v-423bf9ae="" id="2c3c0fdd-2e84-4056-8713-6b2aecbced58" fill="#D3316B" transform="matrix(5.917159562968884,0,0,5.917159562968884,-4.14201086883611,110.5739650052325)"><path d="M7.07 11.97C6.87 11.97 6.79 12.08 6.78 12.31C6.78 12.32 6.78 12.38 6.76 12.43C6.75 12.49 6.75 12.59 6.73 12.71C6.72 12.84 6.71 13.01 6.69 13.20L2.60 13.20L2.60 4.47C2.77 4.47 2.91 4.45 3.05 4.45C3.19 4.45 3.30 4.44 3.37 4.44L3.50 4.44C3.68 4.42 3.78 4.34 3.78 4.19L3.78 3.92L2.60 3.92L1.89 3.92L0.70 3.92L0.70 4.19C0.70 4.34 0.80 4.42 0.98 4.44L1.12 4.44C1.19 4.44 1.29 4.45 1.43 4.45C1.57 4.45 1.72 4.47 1.89 4.47L1.89 13.26C1.72 13.26 1.57 13.27 1.43 13.27C1.29 13.27 1.19 13.29 1.12 13.29L0.98 13.29C0.80 13.30 0.70 13.38 0.70 13.54L0.70 13.82L1.89 13.82L7.17 13.82L7.29 13.82L7.42 13.82L7.42 13.55L7.42 12.99L7.42 11.97L7.14 11.97ZM25.14 13.22L24.68 13.17L20.90 3.91L20.19 3.91L16.39 13.17L15.95 13.22C15.76 13.23 15.68 13.33 15.68 13.50L15.68 13.82L16.13 13.82L16.42 13.82L16.67 13.82L16.77 13.82L18.09 13.82L18.09 13.50C18.09 13.31 17.98 13.23 17.77 13.22C17.75 13.22 17.72 13.20 17.68 13.20C17.64 13.20 17.58 13.19 17.49 13.19C17.39 13.19 17.26 13.19 17.12 13.17L18.10 10.75L18.17 10.57L22.90 10.57L22.97 10.75L23.95 13.17C23.81 13.19 23.70 13.19 23.60 13.19C23.51 13.19 23.44 13.20 23.39 13.20C23.35 13.20 23.32 13.22 23.31 13.22C23.10 13.23 22.99 13.31 22.99 13.50L22.99 13.82L24.30 13.82L24.40 13.82L24.67 13.82L24.95 13.82L25.41 13.82L25.41 13.50C25.41 13.33 25.33 13.23 25.14 13.22ZM20.34 5.22C20.37 5.14 20.41 5.04 20.44 4.94C20.47 4.84 20.51 4.75 20.54 4.63C20.57 4.75 20.61 4.84 20.64 4.94C20.66 5.04 20.71 5.12 20.73 5.21L22.69 10.04L18.40 10.04ZM44.91 3.92L44.37 3.92L44.32 3.92L42.85 3.92L42.85 4.19C42.85 4.34 42.94 4.42 43.12 4.44L43.25 4.44C43.30 4.44 43.40 4.45 43.54 4.45C43.68 4.45 43.82 4.47 43.99 4.47L41.61 12.24C41.58 12.33 41.55 12.43 41.54 12.54C41.52 12.66 41.50 12.75 41.47 12.87C41.44 12.75 41.43 12.63 41.40 12.53L41.31 12.24L38.51 4.10C38.49 4.05 38.46 3.99 38.42 3.96C38.37 3.93 38.32 3.92 38.25 3.92L38.05 3.92C37.98 3.92 37.93 3.93 37.88 3.98C37.84 4.02 37.80 4.05 37.79 4.10L34.99 12.25C34.96 12.35 34.93 12.43 34.90 12.54C34.87 12.64 34.86 12.75 34.83 12.88C34.82 12.78 34.79 12.67 34.76 12.54C34.75 12.43 34.72 12.33 34.69 12.24L32.31 4.47C32.48 4.47 32.62 4.45 32.75 4.45C32.87 4.45 32.96 4.44 33.01 4.44L33.12 4.44C33.31 4.42 33.40 4.34 33.40 4.19L33.40 3.92L31.93 3.92L31.35 3.92L30.74 3.92L30.74 4.19C30.74 4.34 30.84 4.42 31.02 4.44L31.12 4.44C31.16 4.44 31.21 4.45 31.28 4.45C31.35 4.45 31.43 4.47 31.51 4.47L34.47 13.82L35.10 13.82L38.04 5.22C38.08 5.11 38.11 5.00 38.14 4.87C38.16 5.00 38.19 5.11 38.23 5.22L41.16 13.82L41.80 13.82L44.74 4.47C44.83 4.47 44.90 4.45 44.97 4.45C45.04 4.45 45.09 4.44 45.14 4.44L45.23 4.44C45.42 4.42 45.50 4.34 45.50 4.19L45.50 3.92ZM71.05 3.92L70.70 3.92L65.11 3.92L63.92 3.92L63.92 4.19C63.92 4.34 64.02 4.42 64.20 4.44L64.34 4.44C64.41 4.44 64.51 4.45 64.65 4.45C64.79 4.45 64.95 4.47 65.11 4.47L65.11 13.26C64.95 13.26 64.79 13.27 64.65 13.27C64.51 13.27 64.41 13.29 64.34 13.29L64.20 13.29C64.02 13.30 63.92 13.38 63.92 13.54L63.92 13.82L65.11 13.82L65.83 13.82L67.00 13.82L67.00 13.54C67.00 13.38 66.92 13.30 66.74 13.29L66.60 13.29C66.53 13.29 66.43 13.27 66.29 13.27C66.15 13.27 66.00 13.26 65.83 13.26L65.83 9.27L69.52 9.27L69.52 8.67L65.83 8.67L65.83 4.51L70.43 4.51C70.46 5.18 70.49 5.56 70.49 5.63C70.50 5.85 70.60 5.96 70.80 5.96L71.13 5.96L71.13 3.92ZM88.52 8.86C88.52 8.11 88.40 7.41 88.17 6.79C87.95 6.17 87.63 5.64 87.21 5.19C86.79 4.75 86.30 4.40 85.72 4.16C85.15 3.92 84.49 3.79 83.79 3.79C83.09 3.79 82.46 3.92 81.89 4.16C81.31 4.40 80.81 4.75 80.39 5.19C79.97 5.64 79.65 6.17 79.42 6.79C79.20 7.41 79.07 8.11 79.07 8.86C79.07 9.63 79.20 10.33 79.42 10.95C79.65 11.56 79.97 12.10 80.39 12.54C80.81 12.99 81.31 13.33 81.89 13.57C82.46 13.80 83.09 13.93 83.79 13.93C84.49 13.93 85.15 13.80 85.72 13.57C86.30 13.33 86.79 12.99 87.21 12.54C87.63 12.10 87.95 11.56 88.17 10.95C88.40 10.33 88.52 9.63 88.52 8.86ZM87.77 8.86C87.77 9.56 87.68 10.18 87.49 10.72C87.29 11.27 87.02 11.75 86.67 12.12C86.32 12.50 85.90 12.81 85.41 13.01C84.92 13.20 84.39 13.30 83.79 13.30C83.20 13.30 82.67 13.20 82.18 13.01C81.69 12.81 81.27 12.50 80.92 12.12C80.57 11.75 80.29 11.27 80.09 10.72C79.90 10.18 79.81 9.56 79.81 8.86C79.81 8.18 79.90 7.55 80.09 7.00C80.29 6.45 80.57 5.98 80.92 5.60C81.27 5.22 81.69 4.91 82.18 4.72C82.67 4.52 83.20 4.41 83.79 4.41C84.39 4.41 84.92 4.52 85.41 4.72C85.90 4.91 86.32 5.22 86.67 5.60C87.02 5.98 87.29 6.45 87.49 7.00C87.68 7.55 87.77 8.18 87.77 8.86ZM104.79 13.29L104.69 13.29L104.51 13.29C104.43 13.29 104.34 13.27 104.26 13.27L101.29 9.53C101.21 9.42 101.09 9.32 100.98 9.25C101.42 9.21 101.81 9.11 102.16 8.96C102.51 8.81 102.79 8.61 103.04 8.37C103.28 8.13 103.47 7.85 103.60 7.55C103.73 7.24 103.80 6.89 103.80 6.51C103.80 5.66 103.52 5.03 102.96 4.58C102.40 4.14 101.54 3.92 100.39 3.92L97.99 3.92L96.81 3.92L96.81 4.19C96.81 4.34 96.89 4.42 97.08 4.44L97.22 4.44C97.29 4.44 97.38 4.45 97.52 4.45C97.66 4.45 97.82 4.47 97.99 4.47L97.99 13.26C97.82 13.26 97.66 13.27 97.52 13.27C97.38 13.27 97.29 13.29 97.22 13.29L97.08 13.29C96.89 13.30 96.80 13.38 96.80 13.54L96.80 13.82L97.99 13.82L98.70 13.82L99.88 13.82L99.88 13.54C99.88 13.38 99.78 13.30 99.60 13.29L99.46 13.29C99.39 13.29 99.29 13.27 99.15 13.27C99.01 13.27 98.87 13.26 98.70 13.26L98.70 9.34L99.88 9.34C100.07 9.34 100.21 9.35 100.30 9.39C100.38 9.44 100.46 9.52 100.55 9.62L103.73 13.64C103.78 13.71 103.82 13.75 103.88 13.78C103.94 13.80 104.01 13.82 104.08 13.82L104.15 13.82L104.69 13.82L105.06 13.82L105.06 13.54C105.06 13.38 104.97 13.30 104.79 13.29ZM100.30 8.81L98.70 8.81L98.70 4.48L100.39 4.48C101.28 4.48 101.95 4.66 102.41 5.00C102.87 5.33 103.10 5.87 103.10 6.57C103.10 6.92 103.04 7.21 102.91 7.49C102.79 7.77 102.59 7.99 102.35 8.19C102.12 8.39 101.82 8.55 101.47 8.65C101.12 8.75 100.73 8.81 100.30 8.81ZM131.15 3.92L130.96 3.92L123.66 3.92L123.45 3.92L123.35 3.92L123.35 5.96L123.70 5.96C123.90 5.96 123.98 5.85 124.00 5.63C124.00 5.53 124.03 5.17 124.05 4.52L126.95 4.52L126.95 13.26C126.78 13.26 126.64 13.27 126.50 13.27C126.36 13.27 126.25 13.29 126.18 13.29L126.06 13.29C125.87 13.30 125.78 13.38 125.78 13.54L125.78 13.82L126.95 13.82L127.67 13.82L128.86 13.82L128.86 13.54C128.86 13.38 128.76 13.30 128.58 13.29L128.44 13.29C128.37 13.29 128.27 13.27 128.13 13.27C127.99 13.27 127.83 13.26 127.67 13.26L127.67 4.52L130.55 4.52C130.59 5.24 130.61 5.60 130.61 5.63C130.62 5.85 130.72 5.96 130.91 5.96L131.25 5.96L131.25 3.92ZM149.09 4.44C149.27 4.42 149.37 4.34 149.37 4.19L149.37 3.92L148.19 3.92L147.46 3.92L146.29 3.92L146.29 4.19C146.29 4.34 146.38 4.42 146.57 4.44L146.69 4.44C146.76 4.44 146.87 4.45 147.01 4.45C147.15 4.45 147.29 4.47 147.46 4.47L147.46 8.53L141.26 8.53L141.26 4.47C141.43 4.47 141.58 4.45 141.72 4.45C141.86 4.45 141.96 4.44 142.03 4.44L142.17 4.44C142.35 4.42 142.44 4.34 142.44 4.19L142.44 3.92L141.26 3.92L140.55 3.92L139.36 3.92L139.36 4.19C139.36 4.34 139.45 4.42 139.64 4.44L139.78 4.44C139.85 4.44 139.94 4.45 140.08 4.45C140.22 4.45 140.38 4.47 140.55 4.47L140.55 13.26C140.38 13.26 140.22 13.27 140.08 13.27C139.94 13.27 139.85 13.29 139.78 13.29L139.64 13.29C139.45 13.30 139.36 13.38 139.36 13.54L139.36 13.82L140.55 13.82L141.26 13.82L142.44 13.82L142.44 13.54C142.44 13.38 142.35 13.30 142.17 13.29L142.03 13.29C141.96 13.29 141.86 13.27 141.72 13.27C141.58 13.27 141.43 13.26 141.26 13.26L141.26 9.07L147.46 9.07L147.46 13.26C147.29 13.26 147.15 13.27 147.01 13.27C146.87 13.27 146.76 13.29 146.69 13.29L146.57 13.29C146.38 13.30 146.29 13.38 146.29 13.54L146.29 13.82L147.46 13.82L148.19 13.82L149.37 13.82L149.37 13.54C149.37 13.38 149.27 13.30 149.09 13.29L148.96 13.29C148.89 13.29 148.78 13.27 148.64 13.27C148.50 13.27 148.36 13.26 148.19 13.26L148.19 4.47C148.36 4.47 148.50 4.45 148.64 4.45C148.78 4.45 148.89 4.44 148.96 4.44ZM158.90 3.92L157.71 3.92L157.71 4.19C157.71 4.34 157.81 4.42 157.99 4.44L158.13 4.44C158.20 4.44 158.30 4.45 158.44 4.45C158.58 4.45 158.73 4.47 158.90 4.47L158.90 13.26C158.73 13.26 158.58 13.27 158.44 13.27C158.30 13.27 158.20 13.29 158.13 13.29L157.99 13.29C157.81 13.30 157.72 13.38 157.72 13.54L157.72 13.82L158.90 13.82L164.84 13.82L164.84 13.22L164.84 11.76L164.49 11.76C164.29 11.76 164.21 11.89 164.19 12.11C164.19 12.14 164.18 12.19 164.18 12.29C164.18 12.39 164.18 12.53 164.16 12.74C164.15 12.95 164.14 13.09 164.14 13.22L159.61 13.22L159.61 9.09L163.56 9.09L163.56 8.51L159.61 8.51L159.61 4.51L164.14 4.51C164.16 5.12 164.19 5.50 164.19 5.63C164.21 5.85 164.29 5.96 164.49 5.96L164.84 5.96L164.84 4.51L164.84 3.92ZM190.02 4.68C189.43 4.17 188.55 3.92 187.39 3.92L184.98 3.92L183.79 3.92L183.79 4.19C183.79 4.34 183.89 4.42 184.07 4.44L184.21 4.44C184.28 4.44 184.38 4.45 184.52 4.45C184.66 4.45 184.81 4.47 184.98 4.47L184.98 13.26C184.81 13.26 184.66 13.27 184.52 13.27C184.38 13.27 184.28 13.29 184.21 13.29L184.07 13.29C183.89 13.30 183.79 13.38 183.79 13.54L183.79 13.82L184.98 13.82L185.70 13.82L186.87 13.82L186.87 13.54C186.87 13.38 186.77 13.30 186.59 13.29L186.47 13.29C186.40 13.29 186.28 13.27 186.14 13.27C186.00 13.27 185.86 13.26 185.70 13.26L185.70 9.83L187.39 9.83C187.94 9.83 188.43 9.74 188.86 9.60C189.29 9.45 189.66 9.25 189.97 8.99C190.27 8.72 190.51 8.41 190.67 8.05C190.83 7.69 190.90 7.29 190.90 6.86C190.90 5.92 190.61 5.18 190.02 4.68ZM189.99 7.81C189.87 8.11 189.69 8.36 189.45 8.57C189.21 8.78 188.92 8.95 188.57 9.07C188.22 9.20 187.82 9.25 187.39 9.25L185.70 9.25L185.70 4.48L187.39 4.48C188.31 4.48 189.01 4.69 189.49 5.10C189.95 5.50 190.19 6.09 190.19 6.85C190.19 7.20 190.12 7.52 189.99 7.81ZM200.28 3.92L199.09 3.92L199.09 4.19C199.09 4.34 199.19 4.42 199.37 4.44L199.51 4.44C199.58 4.44 199.68 4.45 199.82 4.45C199.96 4.45 200.12 4.47 200.28 4.47L200.28 13.26C200.12 13.26 199.96 13.27 199.82 13.27C199.68 13.27 199.58 13.29 199.51 13.29L199.37 13.29C199.19 13.30 199.11 13.38 199.11 13.54L199.11 13.82L200.28 13.82L206.22 13.82L206.22 13.22L206.22 11.76L205.87 11.76C205.67 11.76 205.59 11.89 205.58 12.11C205.58 12.14 205.56 12.19 205.56 12.29C205.56 12.39 205.56 12.53 205.55 12.74C205.53 12.95 205.52 13.09 205.52 13.22L201.00 13.22L201.00 9.09L204.95 9.09L204.95 8.51L201.00 8.51L201.00 4.51L205.52 4.51C205.55 5.12 205.58 5.50 205.58 5.63C205.59 5.85 205.67 5.96 205.87 5.96L206.22 5.96L206.22 4.51L206.22 3.92ZM224.07 8.86C224.07 8.11 223.94 7.41 223.72 6.79C223.50 6.17 223.17 5.64 222.75 5.19C222.33 4.75 221.84 4.40 221.27 4.16C220.70 3.92 220.04 3.79 219.34 3.79C218.64 3.79 218.01 3.92 217.43 4.16C216.86 4.40 216.36 4.75 215.94 5.19C215.52 5.64 215.19 6.17 214.97 6.79C214.75 7.41 214.62 8.11 214.62 8.86C214.62 9.63 214.75 10.33 214.97 10.95C215.19 11.56 215.52 12.10 215.94 12.54C216.36 12.99 216.86 13.33 217.43 13.57C218.01 13.80 218.64 13.93 219.34 13.93C220.04 13.93 220.70 13.80 221.27 13.57C221.84 13.33 222.33 12.99 222.75 12.54C223.17 12.10 223.50 11.56 223.72 10.95C223.94 10.33 224.07 9.63 224.07 8.86ZM223.31 8.86C223.31 9.56 223.23 10.18 223.03 10.72C222.84 11.27 222.57 11.75 222.22 12.12C221.87 12.50 221.45 12.81 220.96 13.01C220.47 13.20 219.94 13.30 219.34 13.30C218.75 13.30 218.22 13.20 217.73 13.01C217.24 12.81 216.82 12.50 216.47 12.12C216.12 11.75 215.84 11.27 215.64 10.72C215.45 10.18 215.36 9.56 215.36 8.86C215.36 8.18 215.45 7.55 215.64 7.00C215.84 6.45 216.12 5.98 216.47 5.60C216.82 5.22 217.24 4.91 217.73 4.72C218.22 4.52 218.75 4.41 219.34 4.41C219.94 4.41 220.47 4.52 220.96 4.72C221.45 4.91 221.87 5.22 222.22 5.60C222.57 5.98 222.84 6.45 223.03 7.00C223.23 7.55 223.31 8.18 223.31 8.86ZM238.57 4.68C237.99 4.17 237.10 3.92 235.94 3.92L233.53 3.92L232.34 3.92L232.34 4.19C232.34 4.34 232.44 4.42 232.62 4.44L232.76 4.44C232.83 4.44 232.93 4.45 233.07 4.45C233.21 4.45 233.37 4.47 233.53 4.47L233.53 13.26C233.37 13.26 233.21 13.27 233.07 13.27C232.93 13.27 232.83 13.29 232.76 13.29L232.62 13.29C232.44 13.30 232.34 13.38 232.34 13.54L232.34 13.82L233.53 13.82L234.25 13.82L235.42 13.82L235.42 13.54C235.42 13.38 235.33 13.30 235.14 13.29L235.02 13.29C234.95 13.29 234.84 13.27 234.70 13.27C234.56 13.27 234.42 13.26 234.25 13.26L234.25 9.83L235.94 9.83C236.49 9.83 236.98 9.74 237.41 9.60C237.85 9.45 238.21 9.25 238.52 8.99C238.83 8.72 239.06 8.41 239.22 8.05C239.39 7.69 239.46 7.29 239.46 6.86C239.46 5.92 239.16 5.18 238.57 4.68ZM238.55 7.81C238.42 8.11 238.24 8.36 238 8.57C237.76 8.78 237.47 8.95 237.12 9.07C236.77 9.20 236.38 9.25 235.94 9.25L234.25 9.25L234.25 4.48L235.94 4.48C236.87 4.48 237.57 4.69 238.04 5.10C238.50 5.50 238.74 6.09 238.74 6.85C238.74 7.20 238.67 7.52 238.55 7.81ZM254.02 11.97C253.82 11.97 253.74 12.08 253.72 12.31C253.72 12.32 253.72 12.38 253.71 12.43C253.69 12.49 253.69 12.59 253.68 12.71C253.67 12.84 253.65 13.01 253.64 13.20L249.55 13.20L249.55 4.47C249.72 4.47 249.86 4.45 250.00 4.45C250.14 4.45 250.25 4.44 250.32 4.44L250.45 4.44C250.63 4.42 250.73 4.34 250.73 4.19L250.73 3.92L249.55 3.92L248.84 3.92L247.65 3.92L247.65 4.19C247.65 4.34 247.74 4.42 247.93 4.44L248.07 4.44C248.14 4.44 248.23 4.45 248.37 4.45C248.51 4.45 248.67 4.47 248.84 4.47L248.84 13.26C248.67 13.26 248.51 13.27 248.37 13.27C248.23 13.27 248.14 13.29 248.07 13.29L247.93 13.29C247.74 13.30 247.65 13.38 247.65 13.54L247.65 13.82L248.84 13.82L254.11 13.82L254.24 13.82L254.37 13.82L254.37 13.55L254.37 12.99L254.37 11.97L254.09 11.97ZM263.98 3.92L262.79 3.92L262.79 4.19C262.79 4.34 262.89 4.42 263.07 4.44L263.21 4.44C263.28 4.44 263.38 4.45 263.52 4.45C263.66 4.45 263.82 4.47 263.98 4.47L263.98 13.26C263.82 13.26 263.66 13.27 263.52 13.27C263.38 13.27 263.28 13.29 263.21 13.29L263.07 13.29C262.89 13.30 262.81 13.38 262.81 13.54L262.81 13.82L263.98 13.82L269.92 13.82L269.92 13.22L269.92 11.76L269.57 11.76C269.37 11.76 269.29 11.89 269.28 12.11C269.28 12.14 269.26 12.19 269.26 12.29C269.26 12.39 269.26 12.53 269.25 12.74C269.23 12.95 269.22 13.09 269.22 13.22L264.70 13.22L264.70 9.09L268.65 9.09L268.65 8.51L264.70 8.51L264.70 4.51L269.22 4.51C269.25 5.12 269.28 5.50 269.28 5.63C269.29 5.85 269.37 5.96 269.57 5.96L269.92 5.96L269.92 4.51L269.92 3.92Z"></path></g></svg>